<!--?xml version="1.0" standalone="no"?-->
              <svg id="sw-js-blob-svg" viewBox="0 0 100 100" xmlns="http://www.w3.org/2000/svg" version="1.1">
                    <defs> 
                        <linearGradient id="sw-gradient" x1="0" x2="1" y1="1" y2="0">
                            <stop id="stop1" stop-color="rgba(192.006, 166.287, 253.221, 1)" offset="0%"></stop>
                            <stop id="stop2" stop-color="rgba(59.467, 2.043, 104.329, 1)" offset="100%"></stop>
                        </linearGradient>
                    </defs>
                <path fill="url(#sw-gradient)" d="M12.6,-19.1C16.9,-19.4,21.4,-17.2,22.6,-13.5C23.8,-9.9,21.7,-5,21.9,0.1C22,5.1,24.4,10.3,21.5,10.9C18.6,11.6,10.4,7.7,5.9,7.4C1.5,7.1,0.7,10.3,-0.8,11.6C-2.3,13,-4.5,12.4,-7.5,11.8C-10.5,11.3,-14.2,10.8,-16.3,8.9C-18.3,6.9,-18.7,3.5,-16.2,1.4C-13.7,-0.6,-8.4,-1.2,-8.4,-6.6C-8.3,-12.1,-13.7,-22.5,-13.1,-24.4C-12.6,-26.3,-6.3,-19.7,-1.1,-17.8C4.2,-15.9,8.3,-18.8,12.6,-19.1Z" width="100%" height="100%" transform="translate(50 50)" stroke-width="0" style="transition: 0.3s;" stroke="url(#sw-gradient)"></path>
              </svg>